<svg width="16" height="17" viewBox="0 0 16 17" fill="none" xmlns="http://www.w3.org/2000/svg">
<path fill-rule="evenodd" clip-rule="evenodd" d="M8 16.5C12.4183 16.5 16 12.9183 16 8.5C16 4.08172 12.4183 0.5 8 0.5C3.58172 0.5 0 4.08172 0 8.5C0 12.9183 3.58172 16.5 8 16.5ZM3.24689 8.00561L5.10763 6.14721C5.43508 5.81758 5.96783 5.81758 6.29788 6.14721C6.62793 6.47425 6.62793 7.00633 6.29788 7.33596L5.86388 7.76942H12.1673C12.6273 7.76942 12.9989 8.14058 12.9989 8.59999C12.9989 9.0594 12.6273 9.43056 12.1673 9.43056H5.86388L6.29788 9.86401C6.46161 10.0275 6.54477 10.243 6.54477 10.4584C6.54477 10.6738 6.46161 10.8892 6.29788 11.0528C5.97043 11.3824 5.43768 11.3824 5.10763 11.0528L3.24689 9.19436C3.08836 9.03604 3 8.8232 3 8.59999C3 8.37677 3.08836 8.16394 3.24689 8.00561Z" fill="#17658B"/>
</svg>
